<svg xmlns="http://www.w3.org/2000/svg" width="1440" height="900">
    <path d="M865,410L975,422L916,277Z" fill="#6aa2c9" stroke="#6aa2c9" stroke-width="1.51" />
    <path d="M916,277L812,285L865,410Z" fill="#7caad0" stroke="#7caad0" stroke-width="1.51" />
    <path d="M865,410L948,582L975,422Z" fill="#4a99c1" stroke="#4a99c1" stroke-width="1.51" />
    <path d="M1151,268L1034,148L916,277Z" fill="#81aabe" stroke="#81aabe" stroke-width="1.51" />
    <path d="M916,277L764,77L812,285Z" fill="#96b6d7" stroke="#96b6d7" stroke-width="1.51" />
    <path d="M1151,268L916,277L975,422Z" fill="#6fa3bd" stroke="#6fa3bd" stroke-width="1.51" />
    <path d="M1199,499L1151,268L975,422Z" fill="#5498ab" stroke="#5498ab" stroke-width="1.51" />
    <path d="M812,285L683,304L865,410Z" fill="#83afd2" stroke="#83afd2" stroke-width="1.51" />
    <path d="M865,410L780,666L948,582Z" fill="#3f93c2" stroke="#3f93c2" stroke-width="1.51" />
    <path d="M623,159L683,304L812,285Z" fill="#9dbcda" stroke="#9dbcda" stroke-width="1.51" />
    <path d="M948,582L1100,601L975,422Z" fill="#338fb1" stroke="#338fb1" stroke-width="1.51" />
    <path d="M1100,601L1199,499L975,422Z" fill="#338ea6" stroke="#338ea6" stroke-width="1.51" />
    <path d="M683,304L607,408L865,410Z" fill="#7eb0d3" stroke="#7eb0d3" stroke-width="1.51" />
    <path d="M1034,148L764,77L916,277Z" fill="#94b4d5" stroke="#94b4d5" stroke-width="1.51" />
    <path d="M683,304L440,287L607,408Z" fill="#a1bbda" stroke="#a1bbda" stroke-width="1.51" />
    <path d="M607,408L780,666L865,410Z" fill="#5ba2cb" stroke="#5ba2cb" stroke-width="1.51" />
    <path d="M948,582L1036,805L1100,601Z" fill="#148494" stroke="#148494" stroke-width="1.51" />
    <path d="M764,77L623,159L812,285Z" fill="#a4c0dd" stroke="#a4c0dd" stroke-width="1.51" />
    <path d="M1151,268L1193,83L1034,148Z" fill="#84abb2" stroke="#84abb2" stroke-width="1.51" />
    <path d="M1034,148L1037,-30L764,77Z" fill="#9cbbd3" stroke="#9cbbd3" stroke-width="1.51" />
    <path d="M1342,131L1193,83L1151,268Z" fill="#80a5a4" stroke="#80a5a4" stroke-width="1.51" />
    <path d="M1193,83L1037,-30L1034,148Z" fill="#90b4bd" stroke="#90b4bd" stroke-width="1.51" />
    <path d="M449,500L585,578L607,408Z" fill="#80add2" stroke="#80add2" stroke-width="1.51" />
    <path d="M607,408L585,578L780,666Z" fill="#61a1cb" stroke="#61a1cb" stroke-width="1.51" />
    <path d="M1199,499L1360,397L1151,268Z" fill="#539199" stroke="#539199" stroke-width="1.51" />
    <path d="M1443,473L1360,397L1199,499Z" fill="#3a8189" stroke="#3a8189" stroke-width="1.51" />
    <path d="M1360,397L1379,293L1151,268Z" fill="#629295" stroke="#629295" stroke-width="1.51" />
    <path d="M614,813L833,805L780,666Z" fill="#3c8b97" stroke="#3c8b97" stroke-width="1.51" />
    <path d="M780,666L833,805L948,582Z" fill="#2d8ba5" stroke="#2d8ba5" stroke-width="1.51" />
    <path d="M1100,601L1288,645L1199,499Z" fill="#218090" stroke="#218090" stroke-width="1.51" />
    <path d="M833,805L1036,805L948,582Z" fill="#208292" stroke="#208292" stroke-width="1.51" />
    <path d="M1119,839L1288,645L1100,601Z" fill="#057a79" stroke="#057a79" stroke-width="1.51" />
    <path d="M1193,83L1147,-103L1037,-30Z" fill="#93b9ba" stroke="#93b9ba" stroke-width="1.51" />
    <path d="M1379,293L1342,131L1151,268Z" fill="#739a99" stroke="#739a99" stroke-width="1.51" />
    <path d="M623,159L440,287L683,304Z" fill="#b0c2de" stroke="#b0c2de" stroke-width="1.51" />
    <path d="M1037,-30L811,-121L764,77Z" fill="#a8c4de" stroke="#a8c4de" stroke-width="1.51" />
    <path d="M764,77L662,-115L623,159Z" fill="#b9cee4" stroke="#b9cee4" stroke-width="1.51" />
    <path d="M623,159L443,95L440,287Z" fill="#c5cce4" stroke="#c5cce4" stroke-width="1.51" />
    <path d="M440,287L449,500L607,408Z" fill="#9cbada" stroke="#9cbada" stroke-width="1.51" />
    <path d="M585,578L614,813L780,666Z" fill="#4f97ab" stroke="#4f97ab" stroke-width="1.51" />
    <path d="M1037,-30L985,-204L811,-121Z" fill="#a1c0d6" stroke="#a1c0d6" stroke-width="1.51" />
    <path d="M1380,-117L1147,-103L1193,83Z" fill="#8eb1a9" stroke="#8eb1a9" stroke-width="1.51" />
    <path d="M1036,805L1119,839L1100,601Z" fill="#047979" stroke="#047979" stroke-width="1.51" />
    <path d="M1093,968L1119,839L1036,805Z" fill="#046863" stroke="#046863" stroke-width="1.51" />
    <path d="M1288,645L1443,473L1199,499Z" fill="#297b87" stroke="#297b87" stroke-width="1.51" />
    <path d="M1360,397L1493,276L1379,293Z" fill="#5c8488" stroke="#5c8488" stroke-width="1.51" />
    <path d="M1379,293L1493,276L1342,131Z" fill="#6d8d8c" stroke="#6d8d8c" stroke-width="1.51" />
    <path d="M1482,618L1443,473L1288,645Z" fill="#1e6d78" stroke="#1e6d78" stroke-width="1.51" />
    <path d="M811,-121L662,-115L764,77Z" fill="#b5cde4" stroke="#b5cde4" stroke-width="1.51" />
    <path d="M463,-84L443,95L623,159Z" fill="#d1d6e9" stroke="#d1d6e9" stroke-width="1.51" />
    <path d="M410,604L614,813L585,578Z" fill="#68a0b4" stroke="#68a0b4" stroke-width="1.51" />
    <path d="M833,805L838,928L1036,805Z" fill="#227480" stroke="#227480" stroke-width="1.51" />
    <path d="M1147,-103L985,-204L1037,-30Z" fill="#97bcc5" stroke="#97bcc5" stroke-width="1.51" />
    <path d="M811,-121L771,-201L662,-115Z" fill="#b4cde4" stroke="#b4cde4" stroke-width="1.51" />
    <path d="M449,500L410,604L585,578Z" fill="#7ea9cf" stroke="#7ea9cf" stroke-width="1.51" />
    <path d="M340,472L410,604L449,500Z" fill="#8eb2d5" stroke="#8eb2d5" stroke-width="1.51" />
    <path d="M340,472L449,500L440,287Z" fill="#a1bcdb" stroke="#a1bcdb" stroke-width="1.51" />
    <path d="M1443,473L1493,276L1360,397Z" fill="#4d7d82" stroke="#4d7d82" stroke-width="1.51" />
    <path d="M1342,131L1380,-117L1193,83Z" fill="#88a8a0" stroke="#88a8a0" stroke-width="1.51" />
    <path d="M614,813L838,928L833,805Z" fill="#357c86" stroke="#357c86" stroke-width="1.51" />
    <path d="M985,-204L771,-201L811,-121Z" fill="#aac5e0" stroke="#aac5e0" stroke-width="1.51" />
    <path d="M443,95L352,235L440,287Z" fill="#cdcfe6" stroke="#cdcfe6" stroke-width="1.51" />
    <path d="M352,235L340,472L440,287Z" fill="#bac6e1" stroke="#bac6e1" stroke-width="1.51" />
    <path d="M1340,966L1359,788L1119,839Z" fill="#015d4b" stroke="#015d4b" stroke-width="1.51" />
    <path d="M1119,839L1359,788L1288,645Z" fill="#036f60" stroke="#036f60" stroke-width="1.51" />
    <path d="M1359,788L1482,618L1288,645Z" fill="#046963" stroke="#046963" stroke-width="1.51" />
    <path d="M1443,473L1649,316L1493,276Z" fill="#537e83" stroke="#537e83" stroke-width="1.51" />
    <path d="M980,1014L1093,968L1036,805Z" fill="#0e6565" stroke="#0e6565" stroke-width="1.51" />
    <path d="M1493,276L1511,113L1342,131Z" fill="#738d8b" stroke="#738d8b" stroke-width="1.51" />
    <path d="M1147,-103L1180,-258L985,-204Z" fill="#94babd" stroke="#94babd" stroke-width="1.51" />
    <path d="M1607,137L1511,113L1493,276Z" fill="#728c8b" stroke="#728c8b" stroke-width="1.51" />
    <path d="M662,-115L463,-84L623,159Z" fill="#ccd7ea" stroke="#ccd7ea" stroke-width="1.51" />
    <path d="M443,95L335,51L352,235Z" fill="#dad7ea" stroke="#dad7ea" stroke-width="1.51" />
    <path d="M514,-177L463,-84L662,-115Z" fill="#d2d9eb" stroke="#d2d9eb" stroke-width="1.51" />
    <path d="M325,-240L587,-203L771,-201Z" fill="#d0d9eb" stroke="#d0d9eb" stroke-width="1.51" />
    <path d="M771,-201L587,-203L662,-115Z" fill="#bed2e7" stroke="#bed2e7" stroke-width="1.51" />
    <path d="M1511,113L1380,-117L1342,131Z" fill="#819b93" stroke="#819b93" stroke-width="1.51" />
    <path d="M838,928L980,1014L1036,805Z" fill="#1a6870" stroke="#1a6870" stroke-width="1.51" />
    <path d="M744,1127L980,1014L838,928Z" fill="#276d7a" stroke="#276d7a" stroke-width="1.51" />
    <path d="M985,-204L1180,-258L771,-201Z" fill="#9ebfd1" stroke="#9ebfd1" stroke-width="1.51" />
    <path d="M1287,-203L1180,-258L1147,-103Z" fill="#8fb3af" stroke="#8fb3af" stroke-width="1.51" />
    <path d="M166,511L246,624L340,472Z" fill="#9bb8d8" stroke="#9bb8d8" stroke-width="1.51" />
    <path d="M463,-84L335,51L443,95Z" fill="#e0dfee" stroke="#e0dfee" stroke-width="1.51" />
    <path d="M1380,-117L1287,-203L1147,-103Z" fill="#8cafa5" stroke="#8cafa5" stroke-width="1.51" />
    <path d="M614,813L614,946L838,928Z" fill="#3e7880" stroke="#3e7880" stroke-width="1.51" />
    <path d="M506,988L614,946L614,813Z" fill="#527e83" stroke="#527e83" stroke-width="1.51" />
    <path d="M463,-84L243,-5L335,51Z" fill="#e8e4f1" stroke="#e8e4f1" stroke-width="1.51" />
    <path d="M587,-203L514,-177L662,-115Z" fill="#ccd7ea" stroke="#ccd7ea" stroke-width="1.51" />
    <path d="M297,793L400,812L410,604Z" fill="#79a2a8" stroke="#79a2a8" stroke-width="1.51" />
    <path d="M410,604L400,812L614,813Z" fill="#6b9ca4" stroke="#6b9ca4" stroke-width="1.51" />
    <path d="M1649,316L1607,137L1493,276Z" fill="#698888" stroke="#698888" stroke-width="1.51" />
    <path d="M1359,788L1494,770L1482,618Z" fill="#045e54" stroke="#045e54" stroke-width="1.51" />
    <path d="M1527,944L1494,770L1359,788Z" fill="#015140" stroke="#015140" stroke-width="1.51" />
    <path d="M1649,316L1443,473L1663,483Z" fill="#407880" stroke="#407880" stroke-width="1.51" />
    <path d="M1511,113L1495,-127L1380,-117Z" fill="#829b92" stroke="#829b92" stroke-width="1.51" />
    <path d="M1663,483L1443,473L1482,618Z" fill="#296e7a" stroke="#296e7a" stroke-width="1.51" />
    <path d="M340,472L246,624L410,604Z" fill="#8fb1d3" stroke="#8fb1d3" stroke-width="1.51" />
    <path d="M166,511L340,472L100,258Z" fill="#b5c7e1" stroke="#b5c7e1" stroke-width="1.51" />
    <path d="M1093,968L1340,966L1119,839Z" fill="#035d51" stroke="#035d51" stroke-width="1.51" />
    <path d="M1198,1132L1340,966L1093,968Z" fill="#035c4d" stroke="#035c4d" stroke-width="1.51" />
    <path d="M1669,-75L1495,-127L1511,113Z" fill="#829b92" stroke="#829b92" stroke-width="1.51" />
    <path d="M1380,-117L1551,-217L1287,-203Z" fill="#849f96" stroke="#849f96" stroke-width="1.51" />
    <path d="M1287,-203L1551,-217L1180,-258Z" fill="#88a79d" stroke="#88a79d" stroke-width="1.51" />
    <path d="M1680,583L1663,483L1482,618Z" fill="#216a78" stroke="#216a78" stroke-width="1.51" />
    <path d="M400,812L506,988L614,813Z" fill="#5e878a" stroke="#5e878a" stroke-width="1.51" />
    <path d="M614,946L744,1127L838,928Z" fill="#36757e" stroke="#36757e" stroke-width="1.51" />
    <path d="M412,1072L506,988L400,812Z" fill="#648587" stroke="#648587" stroke-width="1.51" />
    <path d="M246,624L297,793L410,604Z" fill="#81abb8" stroke="#81abb8" stroke-width="1.51" />
    <path d="M126,50L100,258L352,235Z" fill="#e3dced" stroke="#e3dced" stroke-width="1.51" />
    <path d="M325,-240L243,-5L463,-84Z" fill="#e9e5f1" stroke="#e9e5f1" stroke-width="1.51" />
    <path d="M246,624L180,853L297,793Z" fill="#82a7a7" stroke="#82a7a7" stroke-width="1.51" />
    <path d="M100,258L340,472L352,235Z" fill="#c6cde4" stroke="#c6cde4" stroke-width="1.51" />
    <path d="M1494,770L1680,583L1482,618Z" fill="#0b6462" stroke="#0b6462" stroke-width="1.51" />
    <path d="M1663,483L1862,341L1649,316Z" fill="#4d7c82" stroke="#4d7c82" stroke-width="1.51" />
    <path d="M1672,818L1680,583L1494,770Z" fill="#045e54" stroke="#045e54" stroke-width="1.51" />
    <path d="M1016,1180L1198,1132L1093,968Z" fill="#04615c" stroke="#04615c" stroke-width="1.51" />
    <path d="M592,1094L744,1127L614,946Z" fill="#457a81" stroke="#457a81" stroke-width="1.51" />
    <path d="M506,988L592,1094L614,946Z" fill="#537e83" stroke="#537e83" stroke-width="1.51" />
    <path d="M412,1072L592,1094L506,988Z" fill="#5c8285" stroke="#5c8285" stroke-width="1.51" />
    <path d="M1340,966L1527,944L1359,788Z" fill="#014939" stroke="#014939" stroke-width="1.51" />
    <path d="M1016,1180L1093,968L980,1014Z" fill="#0f6566" stroke="#0f6566" stroke-width="1.51" />
    <path d="M744,1127L1016,1180L980,1014Z" fill="#1f6a76" stroke="#1f6a76" stroke-width="1.51" />
    <path d="M126,50L352,235L335,51Z" fill="#e5dded" stroke="#e5dded" stroke-width="1.51" />
    <path d="M1539,1193L1527,944L1340,966Z" fill="#014636" stroke="#014636" stroke-width="1.51" />
    <path d="M514,-177L325,-240L463,-84Z" fill="#dfe0ee" stroke="#dfe0ee" stroke-width="1.51" />
    <path d="M243,-5L126,50L335,51Z" fill="#efe7f2" stroke="#efe7f2" stroke-width="1.51" />
    <path d="M587,-203L325,-240L514,-177Z" fill="#dadded" stroke="#dadded" stroke-width="1.51" />
    <path d="M1180,-258L325,-240L771,-201Z" fill="#b3cde4" stroke="#b3cde4" stroke-width="1.51" />
    <path d="M1669,-75L1551,-217L1495,-127Z" fill="#829b92" stroke="#829b92" stroke-width="1.51" />
    <path d="M1495,-127L1551,-217L1380,-117Z" fill="#829b92" stroke="#829b92" stroke-width="1.51" />
    <path d="M1669,-75L1511,113L1607,137Z" fill="#7e9690" stroke="#7e9690" stroke-width="1.51" />
    <path d="M117,-73L126,50L243,-5Z" fill="#f6edf6" stroke="#f6edf6" stroke-width="1.51" />
    <path d="M1844,143L1607,137L1649,316Z" fill="#708b8a" stroke="#708b8a" stroke-width="1.51" />
    <path d="M1829,-27L1669,-75L1607,137Z" fill="#819a92" stroke="#819a92" stroke-width="1.51" />
    <path d="M1527,944L1672,818L1494,770Z" fill="#014f3e" stroke="#014f3e" stroke-width="1.51" />
    <path d="M249,1005L412,1072L400,812Z" fill="#6d8a89" stroke="#6d8a89" stroke-width="1.51" />
    <path d="M592,1094L268,1104L744,1127Z" fill="#588084" stroke="#588084" stroke-width="1.51" />
    <path d="M744,1127L92,1129L1016,1180Z" fill="#4b7b82" stroke="#4b7b82" stroke-width="1.51" />
    <path d="M249,1005L400,812L297,793Z" fill="#72918f" stroke="#72918f" stroke-width="1.51" />
    <path d="M1198,1132L1316,1156L1340,966Z" fill="#015645" stroke="#015645" stroke-width="1.51" />
    <path d="M1527,944L1700,945L1672,818Z" fill="#014636" stroke="#014636" stroke-width="1.51" />
    <path d="M1016,1180L1316,1156L1198,1132Z" fill="#035d52" stroke="#035d52" stroke-width="1.51" />
    <path d="M72,661L246,624L166,511Z" fill="#98b7cf" stroke="#98b7cf" stroke-width="1.51" />
    <path d="M72,661L180,853L246,624Z" fill="#8aafb3" stroke="#8aafb3" stroke-width="1.51" />
    <path d="M-27,391L72,661L166,511Z" fill="#a8c3df" stroke="#a8c3df" stroke-width="1.51" />
    <path d="M100,258L-27,391L166,511Z" fill="#c3d1e6" stroke="#c3d1e6" stroke-width="1.51" />
    <path d="M-17,45L-20,246L100,258Z" fill="#ebe6f2" stroke="#ebe6f2" stroke-width="1.51" />
    <path d="M325,-240L117,-73L243,-5Z" fill="#f1eaf4" stroke="#f1eaf4" stroke-width="1.51" />
    <path d="M1672,818L1789,682L1680,583Z" fill="#04615a" stroke="#04615a" stroke-width="1.51" />
    <path d="M1680,583L1853,480L1663,483Z" fill="#2b6f7a" stroke="#2b6f7a" stroke-width="1.51" />
    <path d="M1789,682L1853,480L1680,583Z" fill="#1d6974" stroke="#1d6974" stroke-width="1.51" />
    <path d="M1853,480L1862,341L1663,483Z" fill="#3d777f" stroke="#3d777f" stroke-width="1.51" />
    <path d="M180,853L249,1005L297,793Z" fill="#76918f" stroke="#76918f" stroke-width="1.51" />
    <path d="M66,945L249,1005L180,853Z" fill="#7b928e" stroke="#7b928e" stroke-width="1.51" />
    <path d="M1862,341L1844,143L1649,316Z" fill="#658687" stroke="#658687" stroke-width="1.51" />
    <path d="M-17,45L100,258L126,50Z" fill="#f1e8f3" stroke="#f1e8f3" stroke-width="1.51" />
    <path d="M-20,246L-27,391L100,258Z" fill="#d9dcec" stroke="#d9dcec" stroke-width="1.51" />
    <path d="M1644,1121L1700,945L1527,944Z" fill="#014636" stroke="#014636" stroke-width="1.51" />
    <path d="M1672,818L1848,848L1789,682Z" fill="#025948" stroke="#025948" stroke-width="1.51" />
    <path d="M1844,143L1829,-27L1607,137Z" fill="#7c938f" stroke="#7c938f" stroke-width="1.51" />
    <path d="M1669,-75L1668,-287L1551,-217Z" fill="#829b92" stroke="#829b92" stroke-width="1.51" />
    <path d="M1835,-238L1829,-27L1844,143Z" fill="#829b92" stroke="#829b92" stroke-width="1.51" />
    <path d="M1835,-238L1668,-287L1669,-75Z" fill="#829b92" stroke="#829b92" stroke-width="1.51" />
    <path d="M1551,-217L1668,-287L1180,-258Z" fill="#829b92" stroke="#829b92" stroke-width="1.51" />
    <path d="M-237,-276L-82,-252L325,-240Z" fill="#fff7fb" stroke="#fff7fb" stroke-width="1.51" />
    <path d="M-27,391L-11,675L72,661Z" fill="#a3c1da" stroke="#a3c1da" stroke-width="1.51" />
    <path d="M-59,838L-9,918L180,853Z" fill="#839f97" stroke="#839f97" stroke-width="1.51" />
    <path d="M-273,288L-254,421L-27,391Z" fill="#ccd7ea" stroke="#ccd7ea" stroke-width="1.51" />
    <path d="M117,-73L-17,45L126,50Z" fill="#faf2f8" stroke="#faf2f8" stroke-width="1.51" />
    <path d="M249,1005L268,1104L412,1072Z" fill="#708c8a" stroke="#708c8a" stroke-width="1.51" />
    <path d="M412,1072L268,1104L592,1094Z" fill="#658687" stroke="#658687" stroke-width="1.51" />
    <path d="M92,1129L268,1104L249,1005Z" fill="#78908d" stroke="#78908d" stroke-width="1.51" />
    <path d="M325,-240L104,-232L117,-73Z" fill="#f5ecf5" stroke="#f5ecf5" stroke-width="1.51" />
    <path d="M117,-73L-71,-82L-17,45Z" fill="#fef6fa" stroke="#fef6fa" stroke-width="1.51" />
    <path d="M1316,1156L1539,1193L1340,966Z" fill="#014a3a" stroke="#014a3a" stroke-width="1.51" />
    <path d="M1016,1180L1539,1193L1316,1156Z" fill="#015544" stroke="#015544" stroke-width="1.51" />
    <path d="M-9,918L66,945L180,853Z" fill="#7f9790" stroke="#7f9790" stroke-width="1.51" />
    <path d="M1700,945L1848,848L1672,818Z" fill="#014b3a" stroke="#014b3a" stroke-width="1.51" />
    <path d="M1789,682L1848,848L1853,480Z" fill="#06635f" stroke="#06635f" stroke-width="1.51" />
    <path d="M1853,480L1848,848L1862,341Z" fill="#216b78" stroke="#216b78" stroke-width="1.51" />
    <path d="M1813,954L1848,848L1700,945Z" fill="#014636" stroke="#014636" stroke-width="1.51" />
    <path d="M1539,1193L1644,1121L1527,944Z" fill="#014636" stroke="#014636" stroke-width="1.51" />
    <path d="M1845,1072L1813,954L1700,945Z" fill="#014636" stroke="#014636" stroke-width="1.51" />
    <path d="M1829,-27L1835,-238L1669,-75Z" fill="#829b92" stroke="#829b92" stroke-width="1.51" />
    <path d="M1862,341L1835,-238L1844,143Z" fill="#7c948f" stroke="#7c948f" stroke-width="1.51" />
    <path d="M104,-232L-71,-82L117,-73Z" fill="#fcf4f9" stroke="#fcf4f9" stroke-width="1.51" />
    <path d="M-17,45L-160,54L-20,246Z" fill="#f5ecf5" stroke="#f5ecf5" stroke-width="1.51" />
    <path d="M-59,838L72,661L-11,675Z" fill="#92b6b5" stroke="#92b6b5" stroke-width="1.51" />
    <path d="M66,945L92,1129L249,1005Z" fill="#7c938f" stroke="#7c938f" stroke-width="1.51" />
    <path d="M-59,838L180,853L72,661Z" fill="#8aada5" stroke="#8aada5" stroke-width="1.51" />
    <path d="M-59,838L-11,675L-238,768Z" fill="#8fb3ad" stroke="#8fb3ad" stroke-width="1.51" />
    <path d="M-245,666L-11,675L-27,391Z" fill="#a3c1da" stroke="#a3c1da" stroke-width="1.51" />
    <path d="M-71,-82L-160,54L-17,45Z" fill="#fef6fa" stroke="#fef6fa" stroke-width="1.51" />
    <path d="M-12,1098L92,1129L66,945Z" fill="#809891" stroke="#809891" stroke-width="1.51" />
    <path d="M268,1104L92,1129L744,1127Z" fill="#6b8989" stroke="#6b8989" stroke-width="1.51" />
    <path d="M-12,1098L66,945L-9,918Z" fill="#819a92" stroke="#819a92" stroke-width="1.51" />
    <path d="M1644,1121L1845,1072L1700,945Z" fill="#014636" stroke="#014636" stroke-width="1.51" />
    <path d="M1813,954L1845,1072L1848,848Z" fill="#014636" stroke="#014636" stroke-width="1.51" />
    <path d="M1848,848L1845,1072L1862,341Z" fill="#035c4e" stroke="#035c4e" stroke-width="1.51" />
    <path d="M1539,1193L1845,1072L1644,1121Z" fill="#014636" stroke="#014636" stroke-width="1.51" />
    <path d="M104,-232L-82,-252L-71,-82Z" fill="#fff7fb" stroke="#fff7fb" stroke-width="1.51" />
    <path d="M-71,-82L-221,-120L-160,54Z" fill="#fff7fb" stroke="#fff7fb" stroke-width="1.51" />
    <path d="M325,-240L-82,-252L104,-232Z" fill="#f9f0f7" stroke="#f9f0f7" stroke-width="1.51" />
    <path d="M-237,-276L325,-240L1180,-258Z" fill="#e0e0ee" stroke="#e0e0ee" stroke-width="1.51" />
    <path d="M-273,288L-20,246L-160,54Z" fill="#ebe6f2" stroke="#ebe6f2" stroke-width="1.51" />
    <path d="M-273,288L-27,391L-20,246Z" fill="#d8dcec" stroke="#d8dcec" stroke-width="1.51" />
    <path d="M-181,997L-9,918L-59,838Z" fill="#829b92" stroke="#829b92" stroke-width="1.51" />
    <path d="M-181,997L-12,1098L-9,918Z" fill="#829b92" stroke="#829b92" stroke-width="1.51" />
    <path d="M-221,-120L-273,288L-160,54Z" fill="#f8f0f7" stroke="#f8f0f7" stroke-width="1.51" />
    <path d="M-254,421L-245,666L-27,391Z" fill="#b0cae2" stroke="#b0cae2" stroke-width="1.51" />
    <path d="M-273,288L-245,666L-254,421Z" fill="#b6cee5" stroke="#b6cee5" stroke-width="1.51" />
    <path d="M-245,666L-238,768L-11,675Z" fill="#93b8bb" stroke="#93b8bb" stroke-width="1.51" />
    <path d="M-273,288L-238,768L-245,666Z" fill="#a4c1da" stroke="#a4c1da" stroke-width="1.51" />
    <path d="M-82,-252L-221,-120L-71,-82Z" fill="#fff7fb" stroke="#fff7fb" stroke-width="1.51" />
    <path d="M-238,768L-181,997L-59,838Z" fill="#85a198" stroke="#85a198" stroke-width="1.51" />
    <path d="M-221,-120L-237,-276L-273,288Z" fill="#fff7fb" stroke="#fff7fb" stroke-width="1.51" />
    <path d="M-82,-252L-237,-276L-221,-120Z" fill="#fff7fb" stroke="#fff7fb" stroke-width="1.51" />
    <path d="M1668,-287L-237,-276L1180,-258Z" fill="#a8c4de" stroke="#a8c4de" stroke-width="1.51" />
    <path d="M-181,997L-159,1122L-12,1098Z" fill="#829b92" stroke="#829b92" stroke-width="1.51" />
    <path d="M-12,1098L-159,1122L92,1129Z" fill="#829b92" stroke="#829b92" stroke-width="1.51" />
    <path d="M92,1129L-159,1122L1016,1180Z" fill="#708b8a" stroke="#708b8a" stroke-width="1.51" />
    <path d="M-238,768L-159,1122L-181,997Z" fill="#829b92" stroke="#829b92" stroke-width="1.51" />
</svg>